<?xml version="1.0" standalone="no"?><!DOCTYPE svg PUBLIC "-//W3C//DTD SVG 1.1//EN" "http://www.w3.org/Graphics/SVG/1.1/DTD/svg11.dtd"><svg class="icon" width="200px" height="200.00px" viewBox="0 0 1024 1024" version="1.1" xmlns="http://www.w3.org/2000/svg"><path fill="#FFFCF3" d="M1018.737778 480.711111s-4.266667-12.8-8.533334-17.066667l-21.333333-42.666666c-21.333333-34.133333-51.2-76.8-93.866667-123.733334C813.937778 207.644444 685.937778 113.777778 511.004444 113.777778s-302.933333 93.866667-384 183.466666c-42.666667 46.933333-72.533333 89.6-93.866666 123.733334-8.533333 17.066667-17.066667 29.866667-21.333334 42.666666-4.266667 4.266667-8.533333 17.066667-8.533333 17.066667-4.266667 12.8-4.266667 25.6 0 34.133333 0 0 4.266667 12.8 8.533333 17.066667l21.333334 42.666667c21.333333 34.133333 51.2 76.8 93.866666 123.733333 81.066667 89.6 209.066667 183.466667 384 183.466667s302.933333-93.866667 384-183.466667c42.666667-46.933333 72.533333-89.6 93.866667-123.733333 8.533333-17.066667 17.066667-29.866667 21.333333-42.666667 4.266667-4.266667 8.533333-17.066667 8.533334-17.066667 4.266667-12.8 4.266667-21.333333 0-34.133333z m-102.4 46.933333c-17.066667 29.866667-46.933333 72.533333-81.066667 110.933334-76.8 81.066667-183.466667 157.866667-324.266667 157.866666s-247.466667-76.8-324.266666-157.866666c-38.4-38.4-64-81.066667-81.066667-110.933334-8.533333-12.8-12.8-21.333333-17.066667-29.866666 4.266667-8.533333 8.533333-17.066667 17.066667-29.866667 21.333333-29.866667 46.933333-72.533333 81.066667-110.933333C263.537778 275.911111 370.204444 199.111111 511.004444 199.111111s247.466667 76.8 324.266667 157.866667c38.4 38.4 64 81.066667 81.066667 110.933333 8.533333 12.8 12.8 21.333333 17.066666 29.866667-4.266667 8.533333-12.8 17.066667-17.066666 29.866666z"  /><path fill="#FFFCF3" d="M511.004444 344.177778c-76.8 0-145.066667 68.266667-145.066666 153.6 0 85.333333 68.266667 153.6 145.066666 153.6 76.8 0 145.066667-68.266667 145.066667-153.6 0-85.333333-68.266667-153.6-145.066667-153.6z m-230.4 153.6c0-128 102.4-238.933333 230.4-238.933334s230.4 110.933333 230.4 238.933334-102.4 238.933333-230.4 238.933333-230.4-110.933333-230.4-238.933333z"  /></svg>